Coordinates
version=1
nRows=4
nColumns=124
inDegrees=yes

Units are S.I. units (second, meters, Newtons, ...)
If the header above contains a line with 'inDegrees', this indicates whether rotational values are in degrees (yes) or radians (no).

endheader 
time	pelvis_tilt	pelvis_list	pelvis_rotation	pelvis_tx	pelvis_ty	pelvis_tz	hip_flexion_l	hip_adduction_l	hip_rotation_l	hip_flexion_r	hip_adduction_r	hip_rotation_r	knee_angle_l	knee_angle_r	ankle_angle_l	ankle_angle_r	subtalar_angle_l	subtalar_angle_r	mtp_angle_l	mtp_angle_r	lumbar_extension	lumbar_bending	lumbar_rotation	arm_flex_l	arm_add_l	arm_rot_l	arm_flex_r	arm_add_r	arm_rot_r	elbow_flex_l	elbow_flex_r	glut_med1_l/activation	glut_med2_l/activation	glut_med3_l/activation	glut_min1_l/activation	glut_min2_l/activation	glut_min3_l/activation	semimem_l/activation	semiten_l/activation	bifemlh_l/activation	bifemsh_l/activation	sar_l/activation	add_long_l/activation	add_brev_l/activation	add_mag1_l/activation	add_mag2_l/activation	add_mag3_l/activation	tfl_l/activation	pect_l/activation	grac_l/activation	glut_max1_l/activation	glut_max2_l/activation	glut_max3_l/activation	iliacus_l/activation	psoas_l/activation	quad_fem_l/activation	gem_l/activation	peri_l/activation	rect_fem_l/activation	vas_med_l/activation	vas_int_l/activation	vas_lat_l/activation	med_gas_l/activation	lat_gas_l/activation	soleus_l/activation	tib_post_l/activation	flex_dig_l/activation	flex_hal_l/activation	tib_ant_l/activation	per_brev_l/activation	per_long_l/activation	per_tert_l/activation	ext_dig_l/activation	ext_hal_l/activation	ercspn_l/activation	intobl_l/activation	extobl_l/activation	glut_med1_r/activation	glut_med2_r/activation	glut_med3_r/activation	glut_min1_r/activation	glut_min2_r/activation	glut_min3_r/activation	semimem_r/activation	semiten_r/activation	bifemlh_r/activation	bifemsh_r/activation	sar_r/activation	add_long_r/activation	add_brev_r/activation	add_mag1_r/activation	add_mag2_r/activation	add_mag3_r/activation	tfl_r/activation	pect_r/activation	grac_r/activation	glut_max1_r/activation	glut_max2_r/activation	glut_max3_r/activation	iliacus_r/activation	psoas_r/activation	quad_fem_r/activation	gem_r/activation	peri_r/activation	rect_fem_r/activation	vas_med_r/activation	vas_int_r/activation	vas_lat_r/activation	med_gas_r/activation	lat_gas_r/activation	soleus_r/activation	tib_post_r/activation	flex_dig_r/activation	flex_hal_r/activation	tib_ant_r/activation	per_brev_r/activation	per_long_r/activation	per_tert_r/activation	ext_dig_r/activation	ext_hal_r/activation	ercspn_r/activation	intobl_r/activation	extobl_r/activation	
          0.40401291	         -3.10962383	          2.93732005	          0.21984216	          0.30039313	          1.02015406	         -0.00077976	         15.16824672	          1.92210292	         -3.36650100	          5.46118666	         -0.06524963	         13.76610943	        -41.66023228	        -14.18516917	         16.90453053	         10.55092826	         -3.44690233	         -9.54597924	          1.21042784	         11.20224303	          1.45039526	          5.97136100	         -3.90767898	          4.54221047	        -13.46344316	         17.17317752	        -30.35358031	        -13.46342614	         19.34403218	        115.05338178	         13.81418482	          0.05000235	          0.05000262	          0.05000509	          0.05001298	          0.05001168	          0.05001411	          0.05000154	          0.05000083	          0.05000042	          0.65794474	          0.29218190	          0.14711757	          0.05001640	          0.05001481	          0.05000983	          0.05000278	          0.31866799	          0.11087131	          0.05101581	          0.05000616	          0.05000308	          0.05000240	          0.21618044	          0.24841474	          0.13782982	          0.10410995	          0.05001209	          0.06477914	          0.05000045	          0.05000041	          0.05000028	          0.05000197	          0.05000422	          0.05000052	          0.15438792	          0.07948739	          0.05001180	          0.28693791	          0.05000198	          0.05000090	          0.16881607	          0.29723001	          0.31031143	          0.14064924	          0.25647977	          0.24067462	          0.89146196	          0.99986690	          0.36042409	          0.52180096	          0.59591259	          0.15484235	          0.05006226	          0.05000273	          0.05134952	          0.05000161	          0.05002059	          0.05000025	          0.05000074	          0.05000604	          0.05001006	          0.05001520	          0.44675708	          0.05000239	          0.05000126	          0.12098618	          0.17808094	          0.05001318	          0.05000071	          0.05000074	          0.05000073	          0.05001093	          0.52151520	          0.35055706	          0.20740657	          0.21788759	          0.17666053	          0.21983993	          0.16176848	          0.28866499	          0.38207755	          0.11745756	          0.14000995	          0.05000526	          0.05000939	          0.05002260	          0.05000767	          0.05000242	          0.05000651	          0.05000010	          0.05000031	          0.05000020	
          0.42017343	         -3.11732085	          3.03159053	         -0.42678301	          0.30897465	          1.02030440	          0.00035517	         16.88365751	          1.96591378	         -3.35242885	          4.71721252	         -0.22566343	         14.15668034	        -40.48659070	        -13.58844591	         17.14847841	         10.45236936	         -3.70131895	         -9.32476552	          0.95792951	         11.74421718	          1.25036707	          5.97710427	         -3.83363408	          6.06137401	        -13.46343399	         16.53434797	        -29.87324785	        -13.46381935	         19.34750506	        114.56911357	         12.68019021	          0.05000235	          0.05000270	          0.05000527	          0.05001280	          0.05001191	          0.05001448	          0.05000094	          0.05000077	          0.05000038	          0.64718126	          0.29245336	          0.15590919	          0.05001187	          0.05001370	          0.05000893	          0.05000264	          0.29666513	          0.10090906	          0.05001352	          0.05000576	          0.05000292	          0.05000233	          0.21282000	          0.24072128	          0.13408352	          0.12174922	          0.05001269	          0.05103528	          0.05000046	          0.05000042	          0.05000028	          0.05000268	          0.05000567	          0.05000065	          0.15750063	          0.07981603	          0.05001400	          0.26147760	          0.05000223	          0.05000104	          0.14849139	          0.30371609	          0.28972633	          0.14449866	          0.25384020	          0.23401565	          0.84808131	          0.99993422	          0.34982269	          0.50114031	          0.57845756	          0.15114229	          0.05000272	          0.05000205	          0.05000246	          0.05000180	          0.05070372	          0.05000027	          0.05000077	          0.05000614	          0.05001011	          0.05001215	          0.46332412	          0.05000251	          0.05000132	          0.10991936	          0.15655988	          0.05001124	          0.05000086	          0.05000092	          0.05000082	          0.05001393	          0.52282277	          0.37319353	          0.19118359	          0.20066199	          0.16336359	          0.24429515	          0.19062497	          0.29053266	          0.38137977	          0.11071005	          0.13433031	          0.05000484	          0.05000922	          0.05421889	          0.05000715	          0.05000223	          0.05000609	          0.05000010	          0.05000029	          0.05000019	
          0.43633395	         -3.12686821	          3.07983726	         -1.07589977	          0.31750757	          1.02030754	          0.00148415	         18.58551996	          1.93274145	         -3.30558556	          3.99126175	         -0.34468430	         14.54019474	        -39.22284816	        -13.01399186	         17.17106143	         10.34225459	         -3.94164259	         -9.14369790	          0.75974808	         12.29861520	          1.05269202	          5.98603967	         -3.75561358	          7.51120715	        -13.46345388	         15.79646303	        -29.19021407	        -13.46470615	         19.34389872	        113.62440597	         11.44999259	          0.05000245	          0.05000286	          0.05000564	          0.05001258	          0.05001226	          0.05001525	          0.05000067	          0.05000075	          0.05000037	          0.62280196	          0.28819933	          0.16290107	          0.05000929	          0.05001273	          0.05000823	          0.05000261	          0.27362174	          0.09078095	          0.05001157	          0.05000561	          0.05000288	          0.05000232	          0.21165869	          0.23606498	          0.13094710	          0.13410525	          0.05001502	          0.05000447	          0.05000047	          0.05000043	          0.05000028	          0.05000360	          0.05000750	          0.05000078	          0.16215614	          0.08082002	          0.05001626	          0.23838854	          0.05000252	          0.05000119	          0.12553229	          0.31358991	          0.26769592	          0.14658126	          0.25138291	          0.22723771	          0.79699005	          0.99996427	          0.33888109	          0.47656143	          0.55437462	          0.14597073	          0.05000250	          0.05000185	          0.05000213	          0.05000207	          0.08252332	          0.05000029	          0.05000081	          0.05000634	          0.05001035	          0.05001112	          0.47324970	          0.05000269	          0.05000140	          0.10059185	          0.14147342	          0.05001029	          0.05000104	          0.05000112	          0.05000092	          0.05001670	          0.52256131	          0.39291995	          0.17401160	          0.18237619	          0.14934364	          0.26733078	          0.21754090	          0.29168623	          0.38112554	          0.10265946	          0.12811677	          0.05000464	          0.05000988	          0.06314009	          0.05000701	          0.05000217	          0.05000589	          0.05000011	          0.05000027	          0.05000019	
          0.45249446	         -3.13747403	          3.08241771	         -1.72726737	          0.32604630	          1.02016410	          0.00260094	         20.25014575	          1.82570033	         -3.22800732	          3.28553908	         -0.42035402	         14.91692935	        -37.86772856	        -12.47718038	         17.01199367	         10.22613971	         -4.16742682	         -9.00261226	          0.60443210	         12.86369933	          0.86212040	          5.99982167	         -3.67556200	          8.87604116	        -13.46343135	         14.98471933	        -28.32141697	        -13.46479372	         19.27834928	        112.22328895	         10.15067244	          0.05000257	          0.05000311	          0.05000623	          0.05001246	          0.05001269	          0.05001612	          0.05000052	          0.05000074	          0.05000037	          0.58964242	          0.28154689	          0.16863016	          0.05000764	          0.05001199	          0.05000776	          0.05000263	          0.25187668	          0.07874412	          0.05000857	          0.05000567	          0.05000296	          0.05000240	          0.21540228	          0.23554181	          0.12997703	          0.14648012	          0.05001805	          0.05000459	          0.05000049	          0.05000044	          0.05000029	          0.05000414	          0.05000846	          0.05000094	          0.16894929	          0.08570324	          0.05002194	          0.21560286	          0.05000289	          0.05000128	          0.10308091	          0.32632002	          0.24459532	          0.14721074	          0.24862716	          0.22034540	          0.74009776	          0.99995955	          0.32381000	          0.44824014	          0.52491039	          0.13931934	          0.05000208	          0.05000172	          0.05000171	          0.05000247	          0.11248987	          0.05000032	          0.05000087	          0.05000664	          0.05001073	          0.05001038	          0.47918253	          0.05000292	          0.05000151	          0.09064225	          0.12474139	          0.05000967	          0.05000132	          0.05000144	          0.05000104	          0.05002048	          0.51993555	          0.41141154	          0.15498818	          0.16230065	          0.13381956	          0.28867338	          0.24242132	          0.29236416	          0.38176073	          0.09196608	          0.11997960	          0.05000432	          0.05001248	          0.07339193	          0.05000685	          0.05000209	          0.05000559	          0.05000011	          0.05000026	          0.05000019	
